<?xml version="1.0" standalone="no"?>
<!DOCTYPE svg PUBLIC "-//W3C//DTD SVG 20010904//EN"
 "http://www.w3.org/TR/2001/REC-SVG-20010904/DTD/svg10.dtd">
<svg version="1.0" xmlns="http://www.w3.org/2000/svg"
 width="16.000000pt" height="16.000000pt" viewBox="0 0 16.000000 16.000000"
 preserveAspectRatio="xMidYMid meet">
<metadata>
Created by potrace 1.11, written by Peter Selinger 2001-2013
</metadata>
<g transform="translate(0.000000,16.000000) scale(0.016000,-0.016000)"
fill="#000000" stroke="none">
<path d="M730 655 c0 -8 5 -15 10 -15 6 0 10 7 10 15 0 8 -4 15 -10 15 -5 0
-10 -7 -10 -15z"/>
<path d="M78 653 c16 -6 16 -90 0 -96 -7 -3 3 -5 22 -5 19 0 29 2 23 5 -17 6
-17 90 0 96 6 3 -4 5 -23 5 -19 0 -29 -2 -22 -5z"/>
<path d="M300 645 c0 -8 -9 -15 -19 -15 -22 0 -35 -30 -26 -60 4 -14 15 -20
36 -20 29 0 29 1 29 55 0 30 -4 55 -10 55 -5 0 -10 -7 -10 -15z m0 -55 c0 -10
-5 -22 -10 -25 -13 -8 -24 20 -16 41 8 20 26 9 26 -16z"/>
<path d="M887 652 c6 -4 13 -28 15 -52 3 -40 6 -45 28 -47 14 -1 18 0 8 3 -14
4 -18 16 -18 55 0 44 -2 49 -22 49 -14 0 -18 -3 -11 -8z"/>
<path d="M532 635 c-7 -8 -8 -15 -3 -15 5 0 11 -15 13 -32 2 -27 8 -33 28 -35
14 -1 18 0 8 3 -12 4 -18 15 -18 34 0 19 6 30 18 33 16 4 16 5 0 6 -10 0 -18
6 -18 11 0 14 -13 12 -28 -5z"/>
<path d="M160 591 c0 -48 17 -55 22 -9 4 46 28 49 28 4 0 -20 5 -36 11 -36 6
0 9 16 7 38 -3 34 -6 37 -35 40 -32 3 -33 2 -33 -37z"/>
<path d="M342 593 c3 -35 6 -38 36 -41 31 -3 32 -2 32 37 0 48 -17 55 -22 9
-4 -46 -28 -49 -28 -4 0 20 -5 36 -11 36 -6 0 -9 -16 -7 -37z"/>
<path d="M437 623 c-15 -14 -6 -33 18 -39 33 -8 32 -28 -1 -21 -16 3 -22 1
-16 -5 15 -15 56 -5 60 14 2 12 -5 19 -22 24 -33 8 -34 28 -1 22 13 -3 22 -1
19 3 -6 11 -48 12 -57 2z"/>
<path d="M620 590 c0 -48 17 -54 22 -7 2 23 8 32 21 31 9 -1 17 2 17 7 0 5
-13 9 -30 9 -28 0 -30 -2 -30 -40z"/>
<path d="M718 623 c19 -8 15 -61 -5 -66 -10 -3 2 -5 27 -5 25 0 37 2 28 5 -13
3 -18 15 -18 39 0 29 -3 34 -22 33 -13 0 -17 -3 -10 -6z"/>
<path d="M806 622 c-3 -6 3 -8 14 -5 27 7 25 -10 -2 -22 -35 -15 -29 -39 10
-43 33 -3 33 -3 30 35 -2 30 -7 39 -25 41 -11 2 -24 -1 -27 -6z m34 -41 c0
-12 -20 -25 -27 -18 -7 7 6 27 18 27 5 0 9 -4 9 -9z"/>
<path d="M262 428 c-11 -58 -7 -72 12 -46 11 15 13 15 23 0 18 -28 22 -10 11
46 -6 29 -16 52 -23 52 -7 0 -17 -23 -23 -52z m25 -10 c-3 -8 -6 -5 -6 6 -1
11 2 17 5 13 3 -3 4 -12 1 -19z"/>
<path d="M622 455 c-7 -8 -8 -15 -3 -15 5 0 11 -15 13 -32 2 -27 8 -33 28 -35
14 -1 18 0 8 3 -24 7 -24 61 0 67 16 4 16 5 0 6 -10 0 -18 6 -18 11 0 14 -13
12 -28 -5z"/>
<path d="M345 430 c-10 -30 4 -60 26 -60 12 0 17 -4 14 -11 -4 -6 -14 -8 -24
-4 -12 5 -13 3 -5 -5 7 -7 20 -10 30 -8 15 2 20 14 22 56 3 52 3 52 -27 52
-21 0 -32 -6 -36 -20z m45 -20 c0 -25 -18 -36 -26 -16 -8 21 3 49 16 41 5 -3
10 -15 10 -25z"/>
<path d="M442 438 c-25 -25 -6 -68 29 -68 10 0 20 4 23 8 3 5 -4 8 -16 8 -12
-1 -23 5 -25 12 -3 7 5 12 21 12 14 0 26 4 26 8 0 12 -22 32 -35 32 -6 0 -16
-5 -23 -12z m33 -8 c3 -5 -1 -10 -10 -10 -9 0 -13 5 -10 10 3 6 8 10 10 10 2
0 7 -4 10 -10z"/>
<path d="M520 411 c0 -48 17 -55 22 -9 4 46 28 49 28 4 0 -20 5 -36 11 -36 6
0 9 16 7 38 -3 34 -6 37 -35 40 -32 3 -33 2 -33 -37z"/>
<path d="M707 443 c-15 -14 -6 -33 18 -39 33 -8 32 -28 -1 -21 -16 3 -22 1
-16 -5 15 -15 56 -5 60 14 2 12 -5 19 -22 24 -33 8 -34 28 -1 22 13 -3 22 -1
19 3 -6 11 -48 12 -57 2z"/>
</g>
</svg>
